<?xml version="1.0" standalone="no"?>
<!DOCTYPE svg PUBLIC "-//W3C//DTD SVG 20010904//EN"
 "http://www.w3.org/TR/2001/REC-SVG-20010904/DTD/svg10.dtd">
<svg version="1.0" xmlns="http://www.w3.org/2000/svg"
 width="512.000000pt" height="512.000000pt" viewBox="0 0 512.000000 512.000000"
 preserveAspectRatio="xMidYMid meet">

<g transform="translate(0.000000,512.000000) scale(0.100000,-0.100000)"
fill="#000000" stroke="none">
<path d="M2 3408 l3 -1712 119 -48 c65 -26 123 -45 127 -42 5 3 9 42 10 87 0
45 4 102 7 127 19 121 -27 258 -114 340 -30 28 -54 53 -54 56 0 17 36 -5 89
-56 35 -33 67 -60 71 -60 4 0 13 -12 19 -27 6 -16 19 -41 29 -58 45 -77 58
-186 42 -350 -11 -100 -10 -118 3 -138 8 -13 50 -99 91 -192 42 -92 85 -179
95 -194 10 -14 26 -47 36 -73 10 -28 24 -49 34 -50 51 -4 292 22 308 35 7 5
13 23 13 39 0 31 57 135 93 171 16 16 28 18 72 13 29 -3 75 -2 101 3 113 22
253 32 274 21 12 -6 54 -12 94 -12 71 0 76 -2 121 -39 26 -22 65 -64 86 -93
38 -53 41 -55 140 -86 55 -18 117 -34 137 -36 35 -5 39 -2 79 54 24 33 56 88
71 123 45 100 51 113 61 129 5 8 15 35 22 59 7 24 21 53 31 65 18 21 18 21 12
-16 -5 -30 -2 -43 17 -66 l24 -28 17 20 c18 21 18 21 45 -10 16 -18 48 -45 73
-60 25 -16 60 -41 78 -56 18 -15 40 -28 48 -28 9 0 22 -7 30 -15 17 -16 54
-21 54 -6 0 8 -74 61 -86 61 -4 0 -22 15 -42 33 -19 17 -53 50 -77 72 -23 22
-68 62 -99 89 -47 41 -56 54 -56 83 0 18 -4 33 -8 33 -12 0 -38 63 -52 125 -6
28 -18 60 -26 72 -11 18 -13 43 -9 110 6 85 5 90 -25 144 -37 69 -57 89 -66
65 -3 -9 -3 -29 1 -44 3 -15 7 -38 7 -52 0 -13 6 -32 13 -42 20 -29 7 -68 -22
-68 -18 0 -28 8 -36 30 -7 19 -18 30 -30 30 -17 0 -18 -6 -12 -77 6 -76 28
-192 45 -243 13 -38 15 -106 6 -199 l-9 -83 -48 4 c-61 6 -73 16 -116 102 -40
80 -56 95 -138 137 -45 23 -162 59 -192 59 -1 0 -9 -23 -18 -51 -23 -69 -39
-58 -43 28 -2 60 -7 74 -27 93 -32 30 -32 69 1 125 l25 44 4 1358 c2 747 7
1476 11 1621 l6 262 -100 0 c-109 0 -111 -1 -113 -63 -1 -31 -1 -31 -22 15
l-22 48 -668 0 -667 0 2 -1712z m1368 1542 c0 -16 -4 -30 -10 -30 -5 0 -10 14
-10 30 0 17 5 30 10 30 6 0 10 -13 10 -30z m10 -90 c0 -5 -4 -10 -10 -10 -5 0
-10 5 -10 10 0 6 5 10 10 10 6 0 10 -4 10 -10z m7 -273 c-2 -7 -11 -13 -20
-15 -12 -3 -17 4 -17 23 0 23 2 25 21 15 11 -6 18 -17 16 -23z m-332 -574 c-3
-10 -10 -38 -15 -61 -9 -48 -24 -71 -34 -53 -4 6 -2 11 4 11 7 0 11 15 9 38
-4 69 0 82 22 82 16 0 20 -4 14 -17z m175 -138 c0 -8 -4 -15 -10 -15 -5 0 -7
7 -4 15 4 8 8 15 10 15 2 0 4 -7 4 -15z m-1 -42 c0 -11 -3 -13 -6 -5 -2 6 -10
9 -15 6 -7 -4 -8 -2 -4 4 11 18 26 14 25 -5z m-187 -83 c1 -13 -23 -90 -28
-90 -13 0 -44 22 -44 31 0 5 11 15 25 21 14 6 25 20 25 30 0 16 21 23 22 8z
m188 -15 c0 -9 -6 -12 -15 -9 -8 4 -15 10 -15 15 0 5 7 9 15 9 8 0 15 -7 15
-15z m-67 -42 c-7 -2 -19 -2 -25 0 -7 3 -2 5 12 5 14 0 19 -2 13 -5z m-73 -44
c0 -17 -4 -28 -10 -24 -5 3 -10 17 -10 31 0 13 5 24 10 24 6 0 10 -14 10 -31z
m-89 -95 c13 -4 14 -11 5 -40 -13 -41 -22 -43 -29 -6 -3 15 -9 35 -13 46 -5
14 -4 17 7 12 8 -3 21 -9 30 -12z m-946 -1304 c3 -6 -1 -7 -9 -4 -18 7 -21 14
-7 14 6 0 13 -4 16 -10z m2175 -390 c0 -5 -4 -10 -10 -10 -5 0 -10 5 -10 10 0
6 5 10 10 10 6 0 10 -4 10 -10z m-473 -356 c-3 -3 -12 -4 -19 -1 -8 3 -5 6 6
6 11 1 17 -2 13 -5z m40 0 c-3 -3 -12 -4 -19 -1 -8 3 -5 6 6 6 11 1 17 -2 13
-5z m8 -54 c3 -5 -1 -10 -9 -10 -8 0 -18 5 -21 10 -3 6 1 10 9 10 8 0 18 -4
21 -10z m-99 -106 c24 -6 49 -50 34 -59 -6 -4 -10 0 -10 8 0 15 -29 27 -67 27
-14 0 -23 6 -23 15 0 16 28 19 66 9z"/>
<path d="M2219 5108 c0 -7 0 -125 0 -263 1 -137 1 -580 1 -982 0 -447 4 -733
9 -733 5 0 31 13 58 30 26 16 73 42 103 57 l55 28 3 183 c2 140 5 183 15 179
6 -2 19 -31 28 -64 9 -33 33 -96 52 -139 19 -44 38 -90 42 -104 4 -14 31 -56
60 -95 60 -80 85 -125 85 -155 0 -12 9 -24 23 -29 49 -19 53 -35 26 -119 l-26
-77 -48 3 c-43 4 -47 2 -41 -14 4 -10 10 -39 13 -64 7 -57 17 -69 54 -68 39 1
127 -40 135 -64 3 -10 8 -18 12 -18 9 0 32 50 32 69 0 9 9 27 20 41 11 14 20
31 20 38 0 28 34 5 58 -38 14 -25 35 -57 48 -72 12 -15 28 -44 34 -65 15 -46
79 -153 92 -153 5 0 11 8 15 18 8 22 34 52 45 52 4 0 8 -13 8 -29 0 -21 -13
-42 -45 -75 -48 -50 -54 -63 -31 -72 14 -6 56 20 104 64 14 12 28 22 33 22 4
0 11 9 14 21 6 18 13 20 54 17 43 -3 52 1 89 34 42 38 58 40 110 15 19 -9 27
-6 52 18 27 26 31 27 72 17 34 -9 46 -8 59 3 22 20 36 19 49 -6 19 -34 60 -21
87 26 26 47 21 59 -21 51 -75 -14 -242 -9 -322 9 l-82 19 18 51 c10 29 22 60
28 71 5 10 41 82 79 159 38 77 97 192 130 255 33 63 63 135 67 159 4 24 10 49
13 55 4 6 6 47 5 91 -5 140 -18 166 -50 98 -25 -53 -60 -87 -77 -73 -10 9 -16
7 -24 -9 -6 -10 -25 -23 -43 -26 -18 -4 -35 -10 -38 -14 -3 -4 -24 -15 -47
-25 -23 -10 -40 -22 -38 -26 3 -4 -9 -6 -26 -4 -26 3 -29 1 -24 -15 7 -23 -38
-77 -55 -66 -6 4 -27 7 -46 7 -21 0 -38 6 -41 14 -3 8 -11 14 -19 14 -8 0 -11
-6 -8 -15 7 -16 -11 -21 -21 -6 -3 5 -19 8 -37 6 -19 -3 -41 2 -57 14 -14 10
-31 16 -38 14 -7 -2 -21 14 -33 36 -11 23 -27 41 -35 41 -8 0 -15 9 -15 20 0
10 -8 24 -17 30 -17 10 -17 10 0 20 9 6 17 20 17 30 0 11 3 20 8 20 4 0 26 18
50 40 28 26 42 48 42 65 0 14 3 25 8 25 4 0 30 21 57 45 28 25 54 45 59 45 5
0 33 16 62 35 29 19 56 35 61 35 5 0 16 9 26 20 9 11 26 20 37 20 11 0 20 5
20 11 0 10 59 39 81 39 6 0 9 -6 6 -14 -7 -17 27 -68 50 -77 24 -9 53 18 53
47 0 19 21 60 57 109 5 6 15 24 23 40 19 35 33 41 54 20 25 -25 19 -66 -14
-104 -37 -41 -38 -64 -5 -97 26 -26 24 -46 -9 -74 -24 -19 -19 -32 12 -28 19
2 31 12 41 35 8 18 27 37 43 44 19 8 28 19 28 35 0 13 8 39 17 59 9 19 14 37
11 40 -3 3 -25 9 -49 13 -30 5 -45 13 -47 25 -2 10 3 17 12 17 22 0 20 36 -1
50 -16 9 -14 14 20 44 24 21 45 32 54 29 12 -5 10 -9 -11 -20 -31 -17 -32 -20
-5 -44 12 -10 29 -33 38 -51 23 -48 36 -36 34 32 -1 33 2 60 5 60 15 0 36 48
52 116 25 107 30 239 18 453 -6 85 -10 107 -27 122 -11 10 -17 26 -14 37 3 13
-12 34 -47 70 -65 66 -117 103 -207 148 -40 19 -73 40 -73 45 0 13 -639 6
-701 -8 -25 -5 -62 -19 -81 -31 -19 -12 -43 -22 -52 -22 -9 0 -16 -4 -16 -10
0 -5 -6 -10 -14 -10 -8 0 -21 -6 -28 -12 -7 -7 -29 -25 -48 -39 -57 -43 -121
-110 -180 -187 -40 -54 -60 -72 -75 -70 -19 3 -20 11 -23 201 l-2 197 -115 0
c-85 0 -115 -3 -116 -12z m256 -642 c-10 -51 -20 -45 -20 14 0 41 2 47 13 36
9 -9 11 -25 7 -50z m598 -40 c9 -7 17 -17 17 -22 0 -4 -5 -3 -12 4 -15 15 -28
16 -28 2 0 -10 5 -12 111 -31 57 -11 73 -10 118 5 29 9 56 14 61 11 13 -8 13
-42 0 -50 -13 -8 -13 -71 0 -96 7 -11 21 -19 38 -19 43 -1 104 -54 119 -103
17 -56 16 -94 -2 -100 -17 -7 -26 5 -34 46 -8 40 -32 55 -63 40 -13 -7 -34
-15 -48 -19 -13 -4 -30 -13 -38 -20 -7 -8 -26 -14 -42 -14 -16 0 -32 -4 -35
-10 -9 -15 -25 -12 -25 6 0 8 -5 12 -11 8 -8 -4 -8 -9 0 -17 16 -16 14 -77 -3
-83 -8 -3 -26 2 -39 11 -16 10 -34 14 -51 9 -15 -3 -42 0 -64 9 -30 12 -55 13
-127 6 -50 -5 -100 -11 -113 -14 -42 -10 -91 5 -104 33 -16 32 -43 44 -34 14
5 -16 1 -21 -25 -26 -61 -12 -83 -7 -127 32 -33 29 -41 42 -36 60 6 20 28 26
79 22 3 -1 23 9 45 21 32 18 40 29 40 50 0 16 -7 32 -16 37 -13 7 -14 13 -4
31 6 13 9 29 6 38 -10 24 4 62 20 56 8 -3 14 -1 14 5 0 6 21 12 48 15 26 3 83
15 127 27 44 12 109 25 145 29 36 5 67 9 70 9 3 1 13 -5 23 -12z m-638 -616
c14 -41 29 -87 32 -102 5 -26 4 -26 -32 -18 -54 12 -77 37 -72 77 3 18 1 36
-4 39 -18 11 -9 61 14 77 12 8 25 12 29 9 3 -4 18 -41 33 -82z m35 50 c0 -5
-2 -10 -4 -10 -3 0 -8 5 -11 10 -3 6 -1 10 4 10 6 0 11 -4 11 -10z m275 -170
c9 -16 31 -44 50 -62 19 -17 35 -39 35 -48 0 -10 10 -29 21 -44 19 -24 20 -30
9 -52 -13 -23 -18 -24 -111 -24 -94 0 -98 1 -118 27 -17 20 -20 34 -15 62 8
45 31 91 45 91 6 0 9 6 6 14 -5 14 37 66 53 66 5 0 16 -13 25 -30z m181 -26
l39 -36 -30 7 c-16 4 -45 7 -62 7 -26 0 -33 4 -33 18 0 16 23 39 41 40 3 0 23
-16 45 -36z m-106 -8 c7 -9 9 -16 6 -16 -15 0 -44 20 -50 35 -4 12 -2 13 13 6
10 -6 23 -17 31 -25z m963 -196 c-7 -28 -13 -25 -13 6 0 14 4 23 9 20 5 -3 7
-15 4 -26z m-858 -28 c17 -12 45 -60 45 -77 0 -11 -6 -15 -17 -11 -10 2 -38 8
-63 11 -41 7 -59 18 -60 37 0 7 68 47 80 47 3 1 10 -3 15 -7z m865 -48 c0 -8
-4 -14 -10 -14 -5 0 -10 9 -10 21 0 11 5 17 10 14 6 -3 10 -13 10 -21z"/>
<path d="M2695 4130 c18 -36 30 -38 39 -7 9 35 8 37 -24 37 l-31 0 16 -30z"/>
<path d="M2668 4093 c7 -3 16 -2 19 1 4 3 -2 6 -13 5 -11 0 -14 -3 -6 -6z"/>
<path d="M2700 4076 c0 -2 7 -6 15 -10 8 -3 15 -1 15 4 0 6 -7 10 -15 10 -8 0
-15 -2 -15 -4z"/>
<path d="M3907 3813 c-4 -3 -7 -11 -7 -17 0 -6 5 -5 12 2 6 6 9 14 7 17 -3 3
-9 2 -12 -2z"/>
<path d="M3721 3713 c0 -6 -4 -18 -7 -26 -4 -10 0 -15 10 -13 19 3 34 16 18
16 -6 0 -13 8 -15 18 -3 9 -5 12 -6 5z"/>
<path d="M4022 2931 c-14 -38 -11 -49 7 -27 7 8 11 25 9 38 -3 20 -5 19 -16
-11z"/>
<path d="M5051 2723 c6 -15 14 -32 18 -38 7 -9 31 -96 44 -160 3 -11 5 35 6
103 l1 122 -40 0 c-39 0 -39 0 -29 -27z"/>
<path d="M2900 2565 c0 -9 3 -14 8 -12 4 3 18 -10 32 -29 14 -18 33 -34 43
-34 27 0 20 16 -20 47 -55 43 -63 46 -63 28z"/>
<path d="M2112 2390 c-16 -26 -16 -70 1 -70 6 0 18 14 26 31 11 26 11 33 0 45
-12 12 -16 11 -27 -6z"/>
<path d="M2328 1933 c-16 -2 -28 -9 -28 -14 0 -6 -4 -7 -10 -4 -11 7 -13 -9
-4 -42 6 -22 34 -33 34 -14 0 4 20 19 45 32 72 38 56 56 -37 42z"/>
<path d="M4046 1898 c-23 -78 -49 -474 -33 -495 9 -13 -17 -28 -80 -47 -26 -8
-28 -4 -12 22 13 21 -1 134 -17 139 -7 2 -13 -18 -17 -53 -3 -31 -11 -62 -16
-67 -14 -14 -14 -54 -1 -62 13 -8 13 -48 -1 -78 -12 -26 -36 -42 -82 -52 l-28
-6 23 -29 c13 -16 29 -29 36 -29 7 -1 18 -12 24 -26 6 -14 14 -25 17 -25 41
-3 87 -14 93 -23 5 -8 23 -7 64 4 51 13 59 18 68 47 6 18 16 36 21 40 20 14 3
106 -21 120 -19 11 -28 139 -28 424 -1 115 -2 208 -4 208 -1 0 -4 -6 -6 -12z"/>
<path d="M3490 1574 c0 -11 -6 -15 -20 -11 -30 8 -48 -27 -55 -106 -6 -62 -4
-72 18 -100 33 -44 72 -64 91 -48 13 11 13 18 0 59 -19 57 -19 52 -1 129 14
66 13 76 -15 86 -13 4 -18 1 -18 -9z"/>
<path d="M3962 1410 c0 -14 2 -19 5 -12 2 6 2 18 0 25 -3 6 -5 1 -5 -13z"/>
<path d="M2306 1271 c-3 -4 1 -17 9 -27 8 -10 15 -33 15 -50 0 -20 10 -39 28
-57 31 -30 62 -35 62 -11 0 11 5 14 17 10 28 -11 132 -91 133 -102 0 -12 -67
-74 -81 -74 -17 0 -9 -97 12 -146 12 -27 25 -51 29 -54 21 -14 38 -74 44 -150
l7 -86 -60 -28 c-56 -27 -65 -29 -153 -23 -69 4 -122 14 -198 40 -190 62 -196
63 -289 39 -45 -11 -108 -37 -140 -56 -32 -20 -61 -36 -64 -36 -4 0 -27 -13
-52 -29 -60 -38 -139 -58 -161 -40 -22 18 -13 60 17 78 36 21 157 124 158 134
2 19 72 68 133 92 38 15 71 31 74 37 11 17 -109 -3 -135 -23 -13 -11 -34 -19
-47 -19 -32 0 -65 -14 -94 -40 -45 -40 -88 -71 -129 -93 -23 -12 -70 -44 -106
-70 -73 -54 -108 -57 -124 -13 -5 12 -21 30 -35 40 -23 14 -25 20 -15 39 6 12
23 33 39 47 15 14 38 45 51 69 13 24 30 53 36 65 11 18 10 21 -8 24 -11 2 -23
10 -25 17 -6 15 15 60 45 94 13 15 18 28 12 35 -7 9 -16 138 -21 289 0 11 -8
17 -24 17 -42 0 -55 -11 -66 -54 -15 -57 -31 -96 -40 -96 -4 0 -11 -28 -14
-62 -10 -81 -19 -98 -57 -98 -36 0 -56 38 -38 71 6 11 11 58 12 104 2 72 0 82
-12 72 -17 -15 -61 -111 -61 -135 0 -38 -55 -58 -79 -28 -16 19 -76 6 -75 -17
1 -9 -4 -17 -12 -17 -7 0 -16 -5 -20 -12 -5 -7 -1 -9 13 -6 16 4 22 0 26 -18
2 -13 0 -24 -4 -24 -23 0 -5 -17 39 -37 26 -12 63 -31 82 -42 99 -55 182 -85
224 -82 36 2 50 -17 30 -40 -14 -16 -20 -14 -82 16 -110 53 -160 75 -173 75
-7 0 -20 7 -30 16 -10 9 -31 17 -48 18 -16 1 -37 11 -47 24 -11 12 -29 23 -42
25 -12 2 -28 9 -34 15 -7 7 -17 12 -23 12 -6 0 -28 9 -49 21 -21 11 -41 18
-43 15 -8 -8 16 -34 37 -41 10 -3 20 -16 22 -29 4 -17 1 -23 -9 -19 -36 14 4
-66 49 -97 18 -12 25 -19 16 -16 -14 4 -18 0 -18 -17 0 -30 26 -66 59 -79 25
-10 25 -11 4 -17 l-22 -6 20 -43 c11 -24 28 -45 37 -48 9 -3 33 -14 53 -25 20
-10 44 -19 52 -19 8 0 17 -4 19 -8 4 -10 146 -82 162 -82 7 0 23 -12 37 -26
l24 -26 -25 7 c-14 4 -35 16 -48 26 -13 10 -36 20 -52 24 -15 3 -31 12 -33 19
-3 7 -20 16 -37 20 -18 3 -45 17 -62 31 -16 14 -40 25 -54 25 -13 0 -24 5 -24
10 0 6 -5 10 -10 10 -6 0 3 -27 20 -60 17 -33 35 -60 40 -60 5 0 9 -9 7 -21
-1 -13 6 -26 18 -32 11 -6 37 -22 57 -34 38 -23 98 -31 98 -14 0 6 15 7 32 5
18 -3 53 1 78 10 25 9 63 16 85 16 45 0 85 9 85 19 0 3 -19 14 -42 23 -23 10
-39 20 -36 23 3 3 30 -6 62 -21 45 -21 65 -24 99 -19 23 4 48 12 54 17 7 6 22
8 32 5 11 -3 49 1 84 7 55 11 70 10 93 -2 22 -12 37 -12 78 -3 28 6 87 16 131
21 44 6 145 22 225 35 238 40 389 47 452 21 48 -20 145 -20 193 0 28 11 55 14
104 9 156 -14 167 -15 141 -6 -14 5 -39 9 -57 10 -36 1 -128 34 -156 55 -17
13 -18 24 -12 105 6 66 13 98 29 122 59 90 72 152 40 197 -8 12 -13 22 -11 22
3 0 -14 19 -37 42 -39 40 -44 42 -104 43 -45 1 -70 7 -90 21 -15 11 -35 23
-44 27 -10 3 -18 13 -18 22 0 8 -9 15 -20 15 -10 0 -44 20 -74 44 -65 53 -151
116 -159 116 -3 0 -8 -4 -11 -9z m-1550 -456 c19 -14 19 -14 -2 -15 -12 0 -24
7 -28 15 -7 19 5 19 30 0z m103 -49 c9 -11 6 -12 -14 -8 -14 2 -25 8 -25 13 0
14 26 11 39 -5z m-32 -66 c23 -18 24 -20 6 -20 -11 0 -28 9 -38 20 -12 13 -14
20 -6 20 7 0 24 -9 38 -20z m178 -10 c3 -5 1 -10 -4 -10 -6 0 -11 5 -11 10 0
6 2 10 4 10 3 0 8 -4 11 -10z m-89 -35 c19 -14 19 -14 -2 -15 -12 0 -27 7 -34
15 -17 20 9 21 36 0z m179 -5 c3 -5 -1 -10 -9 -10 -8 0 -18 5 -21 10 -3 6 1
10 9 10 8 0 18 -4 21 -10z m-95 -36 c24 -23 -8 -17 -38 7 l-27 21 25 -7 c14
-4 32 -13 40 -21z m-75 -47 c17 -8 55 -28 85 -43 68 -33 81 -44 52 -44 -13 0
-25 7 -28 15 -3 8 -22 17 -42 21 -21 4 -50 17 -65 30 -16 13 -37 24 -47 24
-10 0 -20 7 -23 15 -7 16 11 11 68 -18z m155 8 c10 -12 10 -15 -3 -15 -8 0
-20 7 -27 15 -10 12 -10 15 3 15 8 0 20 -7 27 -15z m-30 -115 c0 -5 -4 -10 -9
-10 -6 0 -13 5 -16 10 -3 6 1 10 9 10 9 0 16 -4 16 -10z m108 -9 c11 -6 9 -9
-7 -14 -12 -3 -22 1 -25 9 -6 16 12 18 32 5z m622 -36 c37 -19 39 -35 4 -35
-15 0 -23 4 -19 11 4 6 -1 17 -11 24 -25 19 -10 19 26 0z m-521 -19 c9 -11 6
-12 -14 -8 -14 2 -25 8 -25 13 0 14 26 11 39 -5z m187 -34 c-7 -7 -46 9 -46
18 0 5 11 4 25 -2 14 -6 23 -13 21 -16z m-491 -2 c8 -13 -5 -13 -25 0 -13 8
-13 10 2 10 9 0 20 -4 23 -10z m85 -50 c0 -5 -2 -10 -4 -10 -3 0 -8 5 -11 10
-3 6 -1 10 4 10 6 0 11 -4 11 -10z"/>
<path d="M4437 1169 c-96 -14 -98 -25 -6 -32 85 -6 119 2 119 28 0 17 -22 17
-113 4z"/>
<path d="M174 1145 c-4 -8 -12 -15 -19 -15 -8 0 -16 -18 -20 -41 -5 -29 -10
-38 -16 -28 -6 9 -9 -1 -9 -31 0 -25 -4 -51 -9 -58 -13 -21 -44 -21 -73 0
l-28 19 0 -310 0 -310 33 -5 c17 -3 61 -8 97 -11 83 -8 119 -13 205 -31 39 -8
93 -16 120 -17 28 -1 59 -8 70 -14 11 -6 29 -13 40 -14 10 -2 27 -12 37 -22
10 -9 27 -17 38 -17 10 0 24 -9 30 -21 7 -11 18 -18 25 -15 8 3 15 -2 17 -10
5 -28 254 -104 338 -104 45 0 125 17 155 33 11 5 54 16 95 24 41 8 107 21 145
29 39 8 117 24 175 34 58 11 115 24 128 30 13 5 37 10 55 10 18 0 43 6 58 13
14 8 50 17 80 21 126 18 157 24 205 43 47 17 130 71 122 78 -5 5 -757 -154
-993 -210 -177 -42 -210 -47 -262 -41 -56 6 -123 47 -123 74 0 6 -6 12 -14 12
-17 0 -48 39 -41 51 3 4 -2 10 -11 13 -8 3 -12 11 -8 17 3 6 2 14 -3 18 -5 3
-20 33 -33 66 -13 33 -29 67 -35 75 -7 8 -16 25 -19 38 -8 24 -25 29 -44 10
-9 -9 -12 -8 -12 5 0 9 5 17 10 17 6 0 10 12 10 28 -1 23 -2 24 -11 10 -5 -10
-14 -18 -19 -18 -17 0 -38 66 -38 119 0 54 -18 93 -33 69 -7 -10 -9 -10 -9 1
0 8 -6 22 -14 30 -17 20 -28 89 -15 97 5 3 7 10 4 15 -8 12 -55 12 -55 -1 0
-5 7 -10 15 -10 23 0 18 -15 -9 -28 -20 -9 -25 -8 -29 9 -4 14 -14 19 -36 19
-26 0 -31 4 -31 24 0 13 -6 27 -12 29 -7 3 -3 6 10 6 12 1 22 7 22 14 0 24
-12 27 -47 12 -45 -19 -92 -19 -117 0 -11 8 -27 15 -37 15 -9 0 -27 9 -40 20
-17 14 -19 18 -6 14 14 -5 17 0 17 30 0 25 4 36 15 36 21 0 19 33 -3 53 -23
21 -31 21 -38 2z m453 -557 c-3 -8 -6 -5 -6 6 -1 11 2 17 5 13 3 -3 4 -12 1
-19z"/>
<path d="M1525 1140 c-27 -4 -60 -6 -73 -3 -18 4 -25 -2 -42 -38 -11 -24 -20
-60 -20 -80 0 -21 -9 -47 -21 -63 -31 -39 -13 -32 29 12 27 28 59 46 117 67
82 30 154 82 141 103 -8 13 -53 14 -131 2z"/>
<path d="M60 1125 c0 -8 4 -15 10 -15 5 0 7 7 4 15 -4 8 -8 15 -10 15 -2 0 -4
-7 -4 -15z"/>
<path d="M5080 1120 c28 -22 40 -25 40 -10 0 6 -12 15 -26 20 -38 15 -42 12
-14 -10z"/>
<path d="M3530 1114 c0 -9 9 -18 21 -21 14 -4 19 -12 16 -24 -4 -15 1 -19 24
-19 17 0 40 -9 52 -20 28 -26 58 -34 103 -26 26 5 34 12 32 24 -2 9 -12 17
-23 17 -27 1 -58 12 -141 51 -82 39 -84 40 -84 18z"/>
<path d="M481 934 c0 -11 3 -14 6 -6 3 7 2 16 -1 19 -3 4 -6 -2 -5 -13z"/>
<path d="M1459 772 c-19 -17 -28 -32 -22 -35 6 -4 28 9 49 28 28 25 34 34 22
35 -10 0 -32 -13 -49 -28z"/>
<path d="M1348 677 c-14 -12 -31 -32 -37 -44 -9 -18 -8 -20 9 -16 18 5 40 29
64 71 11 19 -6 14 -36 -11z"/>
<path d="M1246 580 c-17 -6 -18 -7 -3 -13 9 -3 19 -2 23 4 9 15 2 18 -20 9z"/>
<path d="M5063 518 c-26 -29 -57 -78 -52 -82 2 -2 28 -6 57 -10 l52 -7 0 55
c0 40 -4 55 -16 60 -21 8 -18 9 -41 -16z"/>
<path d="M3209 407 c5 -5 24 -7 42 -5 33 3 33 4 -8 8 -23 3 -39 2 -34 -3z"/>
<path d="M1293 233 c9 -2 23 -2 30 0 6 3 -1 5 -18 5 -16 0 -22 -2 -12 -5z"/>
</g>
</svg>
